<?xml version="1.0" encoding="utf-8"?>
<!-- Generator: Adobe Illustrator 16.0.0, SVG Export Plug-In . SVG Version: 6.00 Build 0)  -->
<!DOCTYPE svg PUBLIC "-//W3C//DTD SVG 1.1//EN" "http://www.w3.org/Graphics/SVG/1.1/DTD/svg11.dtd">
<svg version="1.1" id="Layer_1" xmlns="http://www.w3.org/2000/svg" xmlns:xlink="http://www.w3.org/1999/xlink" x="0px" y="0px"
	 width="70px" height="70px" viewBox="0 0 70 70" enable-background="new 0 0 70 70" xml:space="preserve">
<g>
	<defs>
		<filter id="Adobe_OpacityMaskFilter" filterUnits="userSpaceOnUse" x="0" y="0" width="70" height="70">
			<feColorMatrix  type="matrix" values="1 0 0 0 0  0 1 0 0 0  0 0 1 0 0  0 0 0 1 0"/>
		</filter>
	</defs>
	<mask maskUnits="userSpaceOnUse" x="0" y="0" width="70" height="70" id="icon-b">
		<g filter="url(#Adobe_OpacityMaskFilter)">
			<path id="icon-a" fill="#FFFFFF" d="M4,0h61c4,0,5,1,5,5v60c0,4-1,5-5,5H4c-3,0-4-1-4-5V5C0,1,1,0,4,0z"/>
		</g>
	</mask>
	<g mask="url(#icon-b)">
		<path fill="#7DD376" d="M0,0h70v70H0V0z"/>
		<path fill="#FFFFFF" fill-opacity="0.383" d="M4,1h61c2.667,0,4.333,0.667,5,2V0H0v3C0.667,1.667,2,1,4,1z"/>
		<path opacity="0.165" enable-background="new    " d="M26.375,11.5l9.25,1.125L54,18.25l4,6.11v19.558L33.423,69H4.006
			C2.003,69,0,68.854,0,64.911V38.064l12.348-14L26.375,11.5z"/>
		<path fill-opacity="0.383" d="M4,69h61c2.667,0,4.333-1,5-3v4H0v-4C0.667,68,2,69,4,69z"/>
		<g display="none">
			<g id="Layer_1_1_" display="inline">
				<path fill="#FFFFFF" d="M35,8.281C20.246,8.281,8.281,20.246,8.281,35S20.246,61.719,35,61.719S61.719,49.754,61.719,35
					S49.754,8.281,35,8.281z M35,19.297c4.301,0,7.793,3.492,7.793,7.793c0,4.301-3.492,7.793-7.793,7.793s-7.793-3.492-7.793-7.793
					C27.207,22.789,30.699,19.297,35,19.297z M47.598,46.156c0,2.496-2.039,4.535-4.535,4.535H26.938
					c-2.496,0-4.535-2.039-4.535-4.535v-9.609c0-2.496,2.039-4.535,4.535-4.535h0.375c1.582,2.578,4.43,4.3,7.676,4.3
					s6.094-1.729,7.676-4.3h0.375c2.496,0,4.535,2.039,4.535,4.535v9.609H47.598z"/>
			</g>
			<g id="Layer_2" display="inline">
				<g>
					<path fill="#FFFFFF" d="M47.984,8.398H15.289c-3.223,0-5.859,2.637-5.859,5.859v41.484c0,3.223,2.637,5.858,5.859,5.858h32.695
						c3.223,0,5.854-2.644,5.854-5.858V14.258C53.844,11.035,51.207,8.398,47.984,8.398z M31.637,19.297
						c4.3,0,7.792,3.492,7.792,7.793c0,4.301-3.492,7.793-7.792,7.793c-4.301,0-7.793-3.492-7.793-7.793
						C23.844,22.789,27.324,19.297,31.637,19.297z M44.234,46.156c0,2.496-2.039,4.535-4.535,4.535H23.574
						c-2.496,0-4.535-2.039-4.535-4.535v-9.609c0-2.496,2.039-4.535,4.535-4.535h0.375c1.582,2.578,4.43,4.3,7.676,4.3
						s6.094-1.729,7.676-4.3h0.375c2.496,0,4.535,2.039,4.535,4.535v9.609H44.234z"/>
					<g>
						<g>
							<g>
								<g>
									<rect id="SVGID_2_" x="53.375" y="18.242" fill="#FFFFFF" width="7.207" height="32.227"/>
								</g>
								<g>
									<g>
										<g>
											<g>
												<g>
													<g>
														<g>
															<g>
																<defs>
																	<rect id="SVGID_1_" x="53.375" y="18.242" width="7.207" height="32.227"/>
																</defs>
																<clipPath id="SVGID_3_">
																	<use xlink:href="#SVGID_1_"  overflow="visible"/>
																</clipPath>
																<g clip-path="url(#SVGID_3_)">
																	<path fill="#FFFFFF" d="M59.41,19.063h-8.438c-0.646,0-1.18,0.527-1.18,1.172v5.391
																		c0,0.645,0.525,1.172,1.18,1.172h8.438c0.645,0,1.172-0.527,1.172-1.172v-5.391
																		C60.582,19.59,60.055,19.063,59.41,19.063z"/>
																	<path fill="#FFFFFF" d="M56.188,42.266H47.75c-0.645,0-1.172,0.527-1.172,1.172v5.396
																		c0,0.646,0.527,1.172,1.172,1.172h8.438c0.646,0,1.172-0.521,1.172-1.172v-5.396
																		C57.359,42.793,56.832,42.266,56.188,42.266z"/>
																	<path fill="#FFFFFF" d="M58.18,30.664h-8.438c-0.645,0-1.172,0.527-1.172,1.172v5.391
																		c0,0.646,0.527,1.172,1.172,1.172h8.438c0.646,0,1.172-0.521,1.172-1.172v-5.391
																		C59.352,31.191,58.824,30.664,58.18,30.664z"/>
																</g>
															</g>
														</g>
													</g>
												</g>
											</g>
										</g>
									</g>
								</g>
							</g>
						</g>
					</g>
				</g>
			</g>
			<g id="Layer_3" display="inline">
				<g>
					<path fill="#FFFFFF" d="M60.664,17.539h-2.402c-0.375,2.578-2.59,4.57-5.273,4.57c-2.682,0-4.902-1.992-5.271-4.57h-25.43
						c-0.375,2.578-2.59,4.57-5.273,4.57c-2.683,0-4.91-1.992-5.273-4.57H9.336c-0.645,0-1.172,0.527-1.172,1.172v37.734
						c0,0.645,0.527,1.172,1.172,1.172h51.328c0.645,0,1.172-0.527,1.172-1.172V18.711C61.836,18.066,61.309,17.539,60.664,17.539z
						 M23.281,25.508c3.305,0,5.988,2.684,5.988,5.988c0,3.304-2.684,5.988-5.988,5.988c-3.304,0-5.988-2.688-5.988-5.988
						C17.293,28.192,19.977,25.508,23.281,25.508z M32.961,46.156c0,1.922-1.57,3.492-3.492,3.492H17.082
						c-1.922,0-3.492-1.57-3.492-3.492v-7.383c0-1.922,1.57-3.492,3.492-3.492h0.293c1.219,1.979,3.398,3.305,5.906,3.305
						c2.508,0,4.688-1.324,5.906-3.305h0.293c1.922,0,3.492,1.57,3.492,3.492v7.383H32.961z M56.328,45.781
						c0,0.645-0.527,1.172-1.172,1.172H36.992c-0.645,0-1.172-0.527-1.172-1.172v-0.82c0-0.645,0.527-1.172,1.172-1.172h18.164
						c0.645,0,1.172,0.527,1.172,1.172V45.781z M56.328,38.164c0,0.645-0.527,1.172-1.172,1.172H36.992
						c-0.645,0-1.172-0.527-1.172-1.172v-0.82c0-0.645,0.527-1.172,1.172-1.172h18.164c0.645,0,1.172,0.527,1.172,1.172V38.164z
						 M56.328,30.547c0,0.645-0.527,1.172-1.172,1.172H36.992c-0.645,0-1.172-0.527-1.172-1.172v-0.82
						c0-0.645,0.527-1.172,1.172-1.172h18.164c0.645,0,1.172,0.527,1.172,1.172V30.547z"/>
					<path fill="#FFFFFF" d="M17.012,12.383c-2.367,0-4.277,1.91-4.277,4.277c0,2.367,1.91,4.277,4.277,4.277
						c2.367,0,4.277-1.91,4.277-4.277C21.289,14.293,19.379,12.383,17.012,12.383z M17.012,19.414c-1.523,0-2.754-1.23-2.754-2.754
						c0-1.524,1.23-2.754,2.754-2.754c1.524,0,2.754,1.229,2.754,2.754C19.766,18.184,18.535,19.414,17.012,19.414z"/>
					<path fill="#FFFFFF" d="M53.105,12.383c-2.367,0-4.277,1.91-4.277,4.277c0,2.367,1.91,4.277,4.277,4.277
						s4.271-1.91,4.271-4.277C57.382,14.293,55.473,12.383,53.105,12.383z M53.105,19.414c-1.523,0-2.754-1.23-2.754-2.754
						c0-1.524,1.229-2.754,2.754-2.754c1.521,0,2.754,1.229,2.754,2.754C55.859,18.184,54.629,19.414,53.105,19.414z"/>
				</g>
			</g>
			<g id="Layer_4" display="inline">
				<g>
					<path fill="#FFFFFF" d="M46.883,26.41h-7.5c-0.48,0-0.879,0.398-0.879,0.879l0,0c0,0.48,0.398,0.879,0.879,0.879h7.5
						c0.48,0,0.879-0.398,0.879-0.879l0,0C47.762,26.797,47.363,26.41,46.883,26.41z"/>
					<path fill="#FFFFFF" d="M46.883,23.199h-7.5c-0.48,0-0.879,0.398-0.879,0.879s0.398,0.879,0.879,0.879h7.5
						c0.48,0,0.879-0.398,0.879-0.879S47.363,23.199,46.883,23.199z"/>
					<path fill="#FFFFFF" d="M35,8.281C20.246,8.281,8.281,20.246,8.281,35S20.246,61.719,35,61.719S61.719,49.754,61.719,35
						S49.754,8.281,35,8.281z M28.086,27.734c3.34,0,6.047,2.707,6.047,6.047c0,3.34-2.707,6.047-6.047,6.047
						s-6.047-2.707-6.047-6.047C22.039,30.441,24.746,27.734,28.086,27.734z M37.871,48.582c0,1.934-1.582,3.527-3.527,3.527H21.828
						c-1.934,0-3.527-1.582-3.527-3.527v-7.465c0-1.934,1.582-3.527,3.527-3.527h0.293c1.23,2.004,3.434,3.34,5.965,3.34
						c2.531,0,4.734-1.336,5.965-3.34h0.293c1.933,0,3.527,1.582,3.527,3.527V48.582z M52.508,26.527c0,2.098-1.488,3.82-3.305,3.82
						h-7.277l-7.02,2.777l2.098-2.789h0.047c-1.816,0-3.305-1.723-3.305-3.82v-4.84c0-2.098,1.488-3.82,3.305-3.82h12.152
						c1.816,0,3.305,1.723,3.305,3.82V26.527z"/>
					<path fill="#FFFFFF" d="M46.883,20h-7.5c-0.48,0-0.879,0.398-0.879,0.879s0.398,0.879,0.879,0.879h7.5
						c0.48,0,0.879-0.398,0.879-0.879S47.363,20,46.883,20z"/>
				</g>
			</g>
			<g id="Layer_5" display="inline">
				<path fill="#FFFFFF" d="M34.883,8.164c-14.754,0-26.719,11.965-26.719,26.719s11.965,26.719,26.719,26.719
					s26.719-11.965,26.719-26.719S49.637,8.164,34.883,8.164z M29.445,22.203c3.984,0,7.219,3.234,7.219,7.219
					c0,3.985-3.234,7.219-7.219,7.219c-3.985,0-7.219-3.229-7.219-7.219C22.226,25.437,25.461,22.203,29.445,22.203z M41.105,47.082
					c0,2.309-1.895,4.207-4.207,4.207H21.98c-2.309,0-4.207-1.887-4.207-4.207v-8.895c0-2.313,1.887-4.208,4.207-4.208h0.352
					c1.465,2.391,4.102,3.984,7.113,3.984c3.011,0,5.648-1.594,7.114-3.984h0.354c2.312,0,4.207,1.887,4.207,4.208v8.895H41.105z
					 M49.344,29.129v5.988h-2.801v-5.988h-5.988v-2.801h5.988v-5.977h2.801v5.988h5.988v2.801h-5.988V29.129z"/>
			</g>
			<g id="Layer_6" display="inline">
				<path fill="#FFFFFF" d="M35,8.281C20.246,8.281,8.281,20.246,8.281,35S20.246,61.719,35,61.719S61.719,49.754,61.719,35
					S49.754,8.281,35,8.281z M29.563,22.32c3.984,0,7.219,3.234,7.219,7.219s-3.234,7.219-7.219,7.219s-7.219-3.234-7.219-7.219
					S25.578,22.32,29.563,22.32z M41.223,47.199c0,2.309-1.887,4.207-4.207,4.207H22.098c-2.309,0-4.207-1.887-4.207-4.207v-8.895
					c0-2.313,1.887-4.208,4.207-4.208h0.352c1.465,2.39,4.102,3.984,7.113,3.984c3.011,0,5.648-1.596,7.113-3.984h0.352
					c2.313,0,4.207,1.886,4.207,4.208v8.895H41.223z M40.742,29.258v-2.813h14.297v2.813H40.742z"/>
			</g>
			<g id="Layer_7" display="inline">
				<path fill="#FFFFFF" d="M35,8.281C20.246,8.281,8.281,20.246,8.281,35S20.246,61.719,35,61.719S61.719,49.754,61.719,35
					S49.754,8.281,35,8.281z M29.563,22.32c3.984,0,7.219,3.234,7.219,7.219s-3.234,7.219-7.219,7.219s-7.219-3.234-7.219-7.219
					S25.578,22.32,29.563,22.32z M41.223,47.199c0,2.309-1.887,4.207-4.207,4.207H22.098c-2.309,0-4.207-1.887-4.207-4.207v-8.895
					c0-2.313,1.887-4.208,4.207-4.208h0.352c1.465,2.39,4.102,3.984,7.113,3.984c3.011,0,5.648-1.596,7.113-3.984h0.352
					c2.313,0,4.207,1.886,4.207,4.208v8.895H41.223z M48.219,33.031l-1.992,1.992l-1.992-1.992l-4.805-4.805l1.992-1.992
					l4.805,4.805l8.121-8.121l1.992,1.992L48.219,33.031z"/>
			</g>
			<g id="Layer_8" display="inline">
				<g>
					<path fill="#FFFFFF" d="M35,8.281C20.246,8.281,8.281,20.246,8.281,35S20.246,61.719,35,61.719S61.719,49.754,61.719,35
						S49.754,8.281,35,8.281z M44.926,17.07c3.023,0,5.473,2.449,5.473,5.473s-2.441,5.473-5.473,5.473
						c-3.023,0-5.473-2.449-5.473-5.473S41.902,17.07,44.926,17.07z M40.461,36.605c0,3.021-2.449,5.473-5.473,5.473
						s-5.473-2.449-5.473-5.473c0-3.024,2.449-5.479,5.473-5.479S40.461,33.582,40.461,36.605z M25.074,17.07
						c3.023,0,5.473,2.449,5.473,5.473s-2.449,5.473-5.473,5.473c-3.024,0-5.473-2.449-5.473-5.473S22.051,17.07,25.074,17.07z
						 M16.238,35.914v-6.738c0-1.746,1.43-3.188,3.188-3.188h0.27c1.113,1.816,3.105,3.023,5.391,3.023s4.277-1.207,5.391-3.023
						h0.27c1.746,0,3.188,1.43,3.188,3.188v1.289c-2.953,0.504-5.203,3.07-5.203,6.141c0,0.896,0.188,1.734,0.527,2.496h-9.844
						C17.668,39.102,16.238,37.672,16.238,35.914z M43.836,49.742c0,1.746-1.43,3.188-3.188,3.188H29.34
						c-1.746,0-3.188-1.43-3.188-3.188v-6.738c0-1.746,1.43-3.188,3.188-3.188h0.27c1.113,1.813,3.105,3.021,5.391,3.021
						s4.276-1.207,5.392-3.021h0.271c1.746,0,3.188,1.43,3.188,3.188v6.738H43.836z M53.762,35.914c0,1.746-1.43,3.188-3.188,3.188
						h-9.82c0.34-0.762,0.527-1.604,0.527-2.496c0-3.082-2.25-5.637-5.203-6.141v-1.289c0-1.746,1.43-3.188,3.188-3.188h0.271
						c1.111,1.816,3.104,3.023,5.391,3.023s4.277-1.207,5.393-3.023h0.271c1.746,0,3.188,1.43,3.188,3.188v6.738H53.762z"/>
				</g>
			</g>
		</g>
	</g>
</g>
<circle fill="#FFFFFF" cx="35" cy="35" r="26.5"/>
<g>
	<path fill-rule="evenodd" clip-rule="evenodd" fill="#FFFFFF" d="M46.845,42.436c0.082-0.146,0.092-0.183,0.117-0.202
		c4.737-3.675,3.482-10.512-1.43-12.643c-0.238-0.104-0.453-0.555-0.461-0.851c-0.042-1.864-0.011-3.73-0.024-5.595
		c-0.012-1.726-0.988-2.687-2.726-2.703c-0.973-0.009-1.945-0.001-2.935-0.001c-0.018-0.288-0.032-0.454-0.036-0.621
		c-0.033-1.284-0.154-1.408-1.399-1.416c-0.646-0.003-1.292-0.033-1.934,0.009c-0.656,0.042-1.07-0.125-1.484-0.73
		c-1.168-1.706-3.691-1.829-4.874-0.164c-0.587,0.827-1.195,0.937-2.025,0.889c-0.372-0.021-0.747-0.004-1.119-0.004
		c-1.768,0-1.767,0-1.851,1.798c-0.002,0.056-0.061,0.108-0.093,0.163c-0.028,0.017-0.056,0.049-0.084,0.05
		c-0.949,0.01-1.899,0.013-2.848,0.027c-1.66,0.026-2.645,1.004-2.646,2.678c-0.008,8.817-0.009,17.636,0,26.453
		c0.002,1.609,0.997,2.621,2.594,2.624c6.952,0.014,13.905,0.014,20.857,0.001c1.596-0.004,2.585-1.017,2.602-2.621
		c0.019-1.865,0.001-3.73,0.008-5.595c0.001-0.246,0.055-0.491,0.12-1.041c0.341,0.521,0.522,0.787,0.693,1.063
		c0.782,1.269,1.564,2.538,2.342,3.81c0.3,0.489,0.648,0.974,1.287,0.607c0.69-0.396,0.444-0.942,0.111-1.479
		C48.679,45.447,47.768,43.943,46.845,42.436z"/>
	<path fill-rule="evenodd" clip-rule="evenodd" d="M46.845,42.436c0.923,1.508,1.834,3.012,2.763,4.506
		c0.333,0.536,0.579,1.083-0.111,1.479c-0.639,0.366-0.987-0.118-1.287-0.607c-0.777-1.271-1.56-2.541-2.342-3.81
		c-0.171-0.275-0.353-0.541-0.693-1.063c-0.065,0.55-0.119,0.795-0.12,1.041c-0.007,1.864,0.011,3.729-0.008,5.595
		c-0.017,1.604-1.006,2.617-2.602,2.621c-6.952,0.013-13.905,0.013-20.857-0.001c-1.597-0.003-2.592-1.015-2.594-2.624
		c-0.009-8.817-0.009-17.636,0-26.453c0.001-1.674,0.986-2.651,2.646-2.678c0.949-0.015,1.899-0.017,2.848-0.027
		c0.028,0,0.056-0.033,0.084-0.05c0.033-0.054,0.091-0.107,0.093-0.163c0.084-1.797,0.083-1.797,1.851-1.798
		c0.373,0,0.747-0.018,1.119,0.004c0.83,0.048,1.438-0.062,2.025-0.889c1.182-1.665,3.705-1.542,4.874,0.164
		c0.414,0.605,0.828,0.772,1.484,0.73c0.642-0.042,1.288-0.012,1.934-0.009c1.245,0.008,1.366,0.132,1.399,1.416
		c0.004,0.167,0.019,0.333,0.036,0.621c0.989,0,1.962-0.007,2.935,0.001c1.737,0.016,2.714,0.977,2.726,2.703
		c0.014,1.865-0.018,3.731,0.024,5.595c0.008,0.295,0.223,0.747,0.461,0.851c4.912,2.131,6.167,8.968,1.43,12.643
		C46.937,42.253,46.927,42.29,46.845,42.436z M23.54,24.963c0,7.626,0,15.167,0,22.679c5.714,0,11.354,0,17.031,0
		c0-0.995-0.049-1.912,0.014-2.822c0.064-0.958-0.042-1.68-1.174-1.955c-0.529-0.129-1.014-0.543-1.452-0.907
		c-4.266-3.535-3.283-10.162,1.811-12.395c0.313-0.137,0.747-0.465,0.764-0.727c0.08-1.273,0.036-2.554,0.036-3.873
		C34.844,24.963,29.226,24.963,23.54,24.963z M42.667,30.624c-3.148-0.025-5.722,2.482-5.758,5.611
		c-0.036,3.147,2.462,5.735,5.586,5.784c3.187,0.051,5.794-2.491,5.81-5.663C48.32,33.216,45.797,30.649,42.667,30.624z
		 M24.646,22.069c-0.913,0-1.787-0.004-2.66,0.001c-1.216,0.007-1.367,0.147-1.368,1.334c-0.003,8.613-0.003,17.226,0,25.839
		c0,1.18,0.157,1.328,1.374,1.33c3.289,0.003,6.579,0.001,9.867,0.001c3.424,0,6.85-0.003,10.275,0.003
		c0.612,0.002,1.25-0.025,1.266-0.814c0.041-2.023,0.015-4.049,0.015-6.135c-0.472,0.03-0.822,0.053-1.216,0.079
		c0,1.549-0.017,3.004,0.007,4.458c0.012,0.797-0.29,1.194-1.129,1.192c-6.036-0.011-12.072-0.01-18.107-0.002
		c-0.75,0.001-1.135-0.291-1.134-1.077c0.007-7.97,0.007-15.938,0-23.906c0-0.779,0.359-1.111,1.121-1.085
		c0.563,0.02,1.127,0.004,1.69,0.004C24.646,22.826,24.646,22.498,24.646,22.069z M37.684,20.033c-1.051,0-2.003,0.074-2.934-0.035
		c-0.402-0.047-0.924-0.387-1.104-0.741c-0.371-0.731-0.801-1.262-1.662-1.248c-0.811,0.013-1.333,0.478-1.541,1.235
		c-0.181,0.665-0.617,0.806-1.22,0.793c-0.938-0.02-1.875-0.005-2.843-0.005c0,1.13,0,2.157,0,3.196c3.797,0,7.532,0,11.304,0
		C37.684,22.164,37.684,21.161,37.684,20.033z M43.419,28.951c0-2.025,0.038-3.985-0.038-5.941
		c-0.012-0.322-0.501-0.858-0.814-0.893c-1.03-0.114-2.081-0.043-3.161-0.043c0,0.438,0,0.788,0,1.217c0.49,0,0.923-0.001,1.357,0
		c1.31,0.006,1.434,0.131,1.437,1.476c0.003,1.38,0,2.761,0,4.184C42.627,28.951,42.957,28.951,43.419,28.951z"/>
	<path fill-rule="evenodd" clip-rule="evenodd" fill="#FFFFFF" d="M23.54,24.963c5.686,0,11.304,0,17.029,0
		c0,1.319,0.044,2.599-0.036,3.873c-0.017,0.262-0.451,0.59-0.764,0.727c-5.094,2.233-6.077,8.859-1.811,12.395
		c0.438,0.364,0.923,0.778,1.452,0.907c1.132,0.275,1.238,0.997,1.174,1.955c-0.063,0.91-0.014,1.827-0.014,2.822
		c-5.677,0-11.317,0-17.031,0C23.54,40.13,23.54,32.589,23.54,24.963z M30.288,30.62c1.421,0,2.841-0.006,4.262,0.003
		c0.608,0.004,1.196-0.16,1.074-0.847c-0.056-0.314-0.675-0.742-1.048-0.75c-2.806-0.063-5.614-0.031-8.421-0.036
		c-0.568-0.001-1.048,0.138-1.058,0.801c-0.009,0.661,0.456,0.832,1.031,0.83C27.515,30.617,28.902,30.62,30.288,30.62z
		 M30.42,41.209c-1.387,0-2.774,0.005-4.161-0.004c-0.585-0.003-1.147,0.063-1.16,0.799c-0.013,0.733,0.532,0.836,1.126,0.835
		c2.773-0.006,5.547-0.007,8.32,0.001c0.606,0.001,1.197-0.157,1.077-0.845c-0.054-0.313-0.665-0.726-1.047-0.751
		C33.197,41.153,31.807,41.208,30.42,41.209z M29.242,33.064c-1.048,0-2.095,0.002-3.143-0.001c-0.584-0.003-1.099,0.22-0.966,0.845
		c0.067,0.313,0.608,0.736,0.948,0.749c2.025,0.07,4.056,0.075,6.08-0.001c0.367-0.014,0.715-0.502,1.073-0.771
		c-0.351-0.273-0.679-0.74-1.056-0.784C31.21,32.989,30.221,33.064,29.242,33.064z M29.066,38.765c1.014,0,2.028-0.007,3.042,0.003
		c0.607,0.007,1.195-0.161,1.073-0.847c-0.055-0.313-0.671-0.735-1.047-0.75c-1.991-0.074-3.986-0.031-5.98-0.037
		c-0.568-0.002-1.046,0.14-1.056,0.802c-0.009,0.659,0.454,0.833,1.028,0.83C27.106,38.761,28.086,38.765,29.066,38.765z"/>
	<path fill-rule="evenodd" clip-rule="evenodd" fill="#FFFFFF" d="M43.419,28.951c-0.462,0-0.792,0-1.22,0
		c0-1.423,0.003-2.803,0-4.184c-0.003-1.345-0.127-1.47-1.437-1.476c-0.435-0.002-0.867,0-1.357,0c0-0.429,0-0.778,0-1.217
		c1.08,0,2.131-0.071,3.161,0.043c0.313,0.035,0.803,0.571,0.814,0.893C43.457,24.966,43.419,26.926,43.419,28.951z"/>
	<path fill-rule="evenodd" clip-rule="evenodd" d="M30.288,30.62c-1.386,0-2.773-0.003-4.16,0c-0.575,0.002-1.04-0.168-1.031-0.83
		c0.01-0.663,0.49-0.802,1.058-0.801c2.807,0.005,5.615-0.027,8.421,0.036c0.373,0.008,0.992,0.437,1.048,0.75
		c0.122,0.687-0.466,0.851-1.074,0.847C33.129,30.614,31.709,30.62,30.288,30.62z"/>
	<path fill-rule="evenodd" clip-rule="evenodd" d="M30.42,41.209c1.386-0.001,2.776-0.056,4.157,0.035
		c0.382,0.025,0.993,0.438,1.047,0.751c0.12,0.688-0.471,0.846-1.077,0.845c-2.773-0.008-5.547-0.007-8.32-0.001
		c-0.594,0.001-1.139-0.102-1.126-0.835c0.013-0.736,0.575-0.802,1.16-0.799C27.646,41.214,29.034,41.209,30.42,41.209z"/>
	<path fill-rule="evenodd" clip-rule="evenodd" d="M29.242,33.064c0.979,0,1.968-0.075,2.936,0.038
		c0.377,0.044,0.705,0.511,1.056,0.784c-0.357,0.269-0.706,0.757-1.073,0.771c-2.024,0.076-4.055,0.071-6.08,0.001
		c-0.34-0.013-0.881-0.435-0.948-0.749c-0.133-0.625,0.382-0.848,0.966-0.845C27.146,33.067,28.194,33.064,29.242,33.064z"/>
	<path fill-rule="evenodd" clip-rule="evenodd" d="M29.066,38.765c-0.98,0-1.96-0.004-2.94,0.001
		c-0.574,0.003-1.038-0.171-1.028-0.83c0.01-0.662,0.488-0.804,1.056-0.802c1.994,0.006,3.989-0.037,5.98,0.037
		c0.375,0.015,0.992,0.437,1.047,0.75c0.122,0.686-0.466,0.854-1.073,0.847C31.094,38.758,30.08,38.765,29.066,38.765z"/>
</g>
</svg>
